<svg width="164" height="34" viewBox="0 0 164 34" fill="none" xmlns="http://www.w3.org/2000/svg">
<path fill-rule="evenodd" clip-rule="evenodd" d="M141.705 2.80074C140.223 1.25037 138.147 0.840271 135.886 0.840271C134.678 0.840271 132.997 1.087 131.833 1.57711C128.637 3.12082 127.015 4.49448 125.112 8.31539C124.608 9.29896 124.322 9.98246 124.249 10.3659C124.249 10.4759 124.541 10.5359 124.724 10.5559L124.739 10.5577C124.934 10.5795 125.445 10.6368 126.232 10.1892C126.365 10.1092 126.451 9.99246 126.537 9.80242L126.562 9.7482L126.6 9.66247L126.6 9.66238C126.721 9.39168 126.869 9.06087 127.075 8.68215C130.006 2.90743 138.499 1.37707 138.827 9.52568C138.827 11.6962 137.491 14.0568 135.365 16.6407C133.477 18.9858 131.049 21.1255 128.706 23.189L128.694 23.2C128.599 23.2835 128.505 23.3668 128.41 23.45C128.338 23.5142 128.265 23.5783 128.192 23.6424C127.458 24.2797 126.727 24.9171 125.998 25.5527L125.996 25.5545L125.989 25.5603C125.394 26.0794 124.8 26.5973 124.206 27.1132C121.106 29.8205 119.554 31.5576 119.554 32.3278C119.554 32.5445 119.584 32.6512 119.64 32.6512H138.747C138.974 32.5295 139.033 32.3448 139.112 32.0971C139.133 32.0327 139.155 31.964 139.182 31.891L140.704 27.4466L139.139 27.8534C137.978 29.2271 136.608 29.5371 135.561 29.5371H124.425C124.455 29.3971 125.699 28.2135 128.152 25.983C129.877 24.4159 131.449 23.0789 132.871 21.972C136.691 19.048 139.291 16.7741 140.671 15.1437C142.581 12.8665 143.536 10.4526 143.536 7.89863C143.536 5.79146 142.926 4.09105 141.705 2.80074ZM6.05099 21.6986L0.400391 26.6365L0.403707 26.6398C1.97553 30.2306 5.7028 32.9046 11.3136 32.9046C17.9325 32.9046 22.3595 29.4105 23.3112 24.2192C24.1667 19.5714 21.6034 16.4874 17.6042 14.0868C16.9678 13.7058 16.1802 13.4257 15.4022 13.149C13.5455 12.4887 11.7441 11.848 12.1857 9.90245C12.5678 7.83734 14.8486 7.84276 20.5367 7.85627C21.0199 7.85742 21.5277 7.85862 22.061 7.85862H28.299L28.2984 7.86196H39.394C41.6854 7.86196 42.8195 9.43567 42.2226 12.2697C41.8048 14.2435 40.3192 15.5305 37.6033 15.5105L35.3119 15.4905L36.4427 9.27563H27.7545L23.5498 32.4745H32.0356L33.8396 23.2023H36.1111C44.0332 23.2023 49.1963 18.9846 50.148 12.3297C51.1528 5.26133 46.5899 1.00698 40.3954 1.00698H29.9632H29.6215H16.1286C9.84127 1.00698 6.03109 3.87767 5.05948 8.5788C4.12766 13.0699 6.59483 16.2506 10.3022 18.5345C10.4275 18.6117 10.5531 18.6888 10.6787 18.7659C12.9664 20.1697 15.2329 21.5604 14.8651 23.3557C14.5733 24.7827 12.8854 25.2895 11.758 25.2895C9.44997 25.2895 7.31442 23.8658 6.05099 21.6986ZM62.2748 1.00699H53.789L47.7106 32.4745H56.1965L62.2748 1.00699ZM83.7232 32.4745L77.238 20.1969C80.9233 19.0422 83.6406 15.8823 84.3201 11.8029C85.4277 5.22467 80.9244 1.00699 74.5741 1.00699H64.0721L58.0335 32.4745H66.4995L68.8307 20.4116L74.5775 32.4745H83.7232ZM69.8985 14.7303L72.1501 14.7503C74.2259 14.7903 75.7613 13.6 76.0332 11.7829C76.3051 9.96914 75.1843 8.24206 73.4168 8.24206H71.1553L69.8985 14.7303ZM98.3074 1.00699H89.8215L83.7431 32.4745H92.229L98.3074 1.00699ZM106.448 8.81553H98.4332L99.9421 1.00699C99.9421 1.00699 120.263 1.06701 127.396 1.06701C123.33 3.07749 121.274 7.44853 120.833 8.81553H114.951L110.368 32.4745H101.882L106.448 8.81553ZM148.095 8.17535C147.74 8.11201 147.465 8.04199 147.445 7.80527C148.238 6.16154 149.534 4.6245 151.372 3.18416C153.351 1.63712 155.56 0.863604 157.33 0.863604C159.101 0.863604 160.809 1.24036 161.794 2.00054C162.775 2.76072 163.266 3.80431 163.266 5.13796C163.266 7.3785 162.039 9.53235 159.582 11.5995C158.8 12.2597 157.917 12.8665 156.936 13.4166C159.161 13.4166 160.809 14.1234 161.88 15.5338C162.719 16.6507 163.137 17.921 163.137 19.338C163.137 20.755 162.928 22.0387 162.507 23.1889C162.089 24.3392 161.525 25.4161 160.816 26.4197C160.109 27.4233 159.294 28.3435 158.378 29.1804C157.46 30.0139 156.501 30.7308 155.503 31.3276C152.132 33.7175 148.449 33.2183 145.03 32.7549L145.028 32.7546C144.48 32.7546 143.696 32.727 142.938 32.7003C142.23 32.6754 141.544 32.6512 141.095 32.6512C141.095 32.6512 141.446 31.631 143.105 26.8232L145.522 26.1963C145.52 26.2354 145.513 26.2755 145.506 26.3155C145.501 26.3471 145.495 26.3788 145.492 26.4097C145.489 26.4404 145.485 26.4712 145.482 26.502L145.472 26.5942C145.386 27.3539 145.298 28.1368 145.525 28.877C146.397 31.5243 149.906 32.2478 152.277 31.3842C154.797 30.394 156.508 28.0201 157.616 25.6262C158.382 23.9258 158.766 22.4588 158.766 21.2218C158.766 19.9848 158.65 19.0746 158.418 18.4745C158.186 17.8777 157.878 17.3876 157.486 17.0041C156.813 16.3473 155.978 15.9839 154.969 15.9139C154.446 15.9539 153.922 16.1073 153.401 16.3707C152.778 16.6874 152.399 16.8941 152.26 16.9908C152.124 17.0908 152.088 17.1142 152.012 17.1408C151.879 17.1875 151.395 17.3242 151.176 17.0942C151.063 16.9775 151.063 16.8374 151.08 16.6941C151.133 16.4307 151.557 16.0072 152.413 15.4604C154.449 13.9734 155.858 12.8165 156.641 11.9863C158.302 10.2258 159.134 8.54544 159.134 6.95173C159.134 2.58402 154.207 2.50066 151.471 5.25132C150.675 5.92482 149.83 6.83503 148.918 8.08533C148.788 8.25204 148.45 8.23537 148.095 8.17202V8.17535Z" fill="#CFFF69"/>
</svg>
