<svg width="284" height="108" viewBox="0 0 284 108" fill="none" xmlns="http://www.w3.org/2000/svg">
<path fill-rule="evenodd" clip-rule="evenodd" d="M8.98512 1.32028C8.58126 2.0464 7.80965 3.4368 7.27043 4.40999L6.29001 6.17943L7.17089 6.21945C7.65537 6.2415 13.1002 6.25375 19.2704 6.24667L30.4891 6.23388L30.7364 5.79832C30.8725 5.55877 31.6408 4.17452 32.4439 2.72222L33.904 0.0816665L33.5627 0.0472033C33.375 0.0282566 27.9335 0.00985443 21.4705 0.00636999L9.71944 0L8.98512 1.32028ZM38.6163 0.394722C37.069 3.20596 25.0139 24.927 24.9736 24.9763C24.9294 25.0303 22.9769 25.0444 15.5426 25.0444C9.39968 25.0444 6.17345 25.0629 6.18536 25.0981C6.19531 25.1277 6.96181 26.5239 7.88869 28.2008L9.57392 31.2498L18.9898 31.2504L28.4056 31.2511L28.6194 30.8836C28.8067 30.5616 35.1915 19.0509 40.4378 9.57714L42.2345 6.33259L43.6215 6.29687C44.3844 6.27716 48.6128 6.2611 53.0181 6.2611C57.4234 6.2611 61.0277 6.24765 61.0277 6.23116C61.0277 6.17617 60.8607 5.86856 59.2479 2.95361L57.644 0.0544444H48.2238H38.8036L38.6163 0.394722ZM1.92402 14.0603C1.45868 14.9062 1.04955 15.6543 1.01481 15.7227C0.958272 15.8341 1.03547 15.9985 1.74946 17.2881L2.54722 18.7291L13.0654 18.7154L23.5837 18.7016L25.2619 15.68C26.185 14.0181 26.9407 12.6277 26.9414 12.5903C26.9424 12.536 24.4898 12.5222 14.8563 12.5222H2.77005L1.92402 14.0603ZM41.8787 15.5303C40.9617 17.1847 40.197 18.5773 40.1795 18.6249C40.1514 18.7013 40.2673 18.7157 41.1694 18.7472C42.4841 18.7933 63.3002 18.784 63.901 18.7371L64.3552 18.7016L65.2465 17.0974C65.7367 16.2151 66.1378 15.4699 66.1378 15.4414C66.1378 15.413 65.7815 14.7445 65.346 13.9559L64.5543 12.5222H54.0503H43.5462L41.8787 15.5303ZM36.5787 25.1125C36.5368 25.1656 33.912 29.8913 33.3299 30.9615L33.2061 31.1892L33.5399 31.2226C33.7235 31.241 39.17 31.2488 45.6432 31.24L57.4126 31.2238L59.1075 28.175C60.0397 26.4981 60.8041 25.1077 60.8063 25.0852C60.8085 25.0627 55.3702 25.0444 48.7213 25.0444C39.1151 25.0444 36.6214 25.0584 36.5787 25.1125Z" fill="#141414"/>
<path d="M11.8502 80.7702C6.24069 80.7702 2.51398 78.111 0.94177 74.5396L6.59007 69.6288C7.85172 71.7833 9.98682 73.2003 12.2966 73.2003C13.4224 73.2003 15.1111 72.6956 15.4022 71.2787C15.7904 69.3959 13.2477 67.9596 10.8409 66.4844C7.13355 64.2134 4.66849 61.0496 5.60017 56.5853C6.57066 51.9075 11.4232 48.5884 16.8774 48.5884C21.167 48.5884 24.7966 50.8788 26.0777 54.0232L20.5459 58.7592C19.7889 57.2259 18.1196 56.1777 16.3339 56.1777C14.8587 56.1777 13.8494 57.0512 13.6747 58.0217C13.3642 59.6327 15.9845 60.7779 18.139 62.0589C22.1375 64.4464 24.6996 67.5131 23.8455 72.1327C22.8945 77.2958 18.469 80.7702 11.8502 80.7702ZM22.1025 80.3431L28.1779 49.0543H38.9504C45.1422 49.0543 49.7035 53.2856 48.6942 60.312C47.7431 66.9308 42.5801 71.1234 34.6608 71.1234H32.3898L30.5847 80.3431H22.1025ZM36.1554 63.4759C38.8728 63.4953 40.445 62.2336 40.7749 60.2538C41.1049 58.1381 39.7462 56.7212 37.4558 56.7212H35.1849L33.865 63.4565L36.1554 63.4759ZM44.806 80.3431L50.8813 49.0543H59.3635L53.2882 80.3431H44.806ZM81.4846 59.788C80.8053 63.8447 78.0879 66.9891 74.4 68.1343L80.8829 80.3431H71.7408L65.9955 68.3478L63.6663 80.3431H55.2035L61.24 49.0543H71.7408C78.0879 49.0543 82.591 53.2468 81.4846 59.788ZM68.247 56.6241L67.063 62.6995L69.3146 62.7189C71.3915 62.7577 72.9248 61.5737 73.1966 59.7686C73.4683 57.9634 72.2649 56.6241 70.4986 56.6241H68.247ZM80.3138 80.3431L86.3892 49.0543H94.8713L88.796 80.3431H80.3138ZM117.264 49.0543L115.75 56.8182H108.801L104.221 80.3431H95.7386L100.3 56.8182H93.3511L94.8457 49.0543H117.264Z" fill="#141414"/>
<path d="M115.076 80.2511C115.015 80.2511 114.984 80.1439 114.984 79.9294C114.984 79.1636 116.638 77.4328 119.947 74.7371C121.356 73.5884 122.772 72.4396 124.197 71.2909C125.621 70.1268 126.992 68.9704 128.309 67.8216C129.642 66.6576 130.821 65.4859 131.848 64.3065C134.114 61.7333 135.248 59.3669 135.248 57.2072C135.248 55.6296 134.765 54.2741 133.8 53.1406C132.79 51.9613 131.541 51.3716 130.055 51.3716C128.876 51.3716 127.62 51.6856 126.288 52.3135C124.48 53.1866 123.033 54.5421 121.945 56.3801C121.685 56.8243 121.493 57.1995 121.371 57.5059C121.248 57.7969 121.141 57.9654 121.049 58.0113C120.82 58.1492 120.582 58.2181 120.337 58.2181C120.107 58.2181 119.992 58.1645 119.992 58.0573C120.069 57.6744 120.375 56.9928 120.911 56.0125C121.999 54.0213 122.949 52.6888 123.76 52.0149C124.572 51.3256 125.323 50.7666 126.012 50.3377C126.716 49.9088 127.406 49.5642 128.08 49.3038C129.32 48.8137 130.584 48.5686 131.871 48.5686C133.157 48.5686 134.26 48.7448 135.179 49.097C136.113 49.434 136.902 49.9088 137.545 50.5215C138.847 51.8081 139.498 53.5006 139.498 55.599C139.498 58.1415 138.48 60.5462 136.443 62.8131C134.972 64.4367 132.2 66.7035 128.126 69.6137C126.609 70.7165 124.932 72.049 123.094 73.6113C120.475 75.8322 119.15 77.0116 119.119 77.1495H132.054C133.172 77.1495 134.023 76.8355 134.605 76.2075C135.003 75.794 135.554 74.8213 136.259 73.2897H137.132L134.857 79.4929C134.719 79.8452 134.497 80.0979 134.191 80.2511H115.076ZM152.553 48.5686C153.778 48.5686 154.858 48.8596 155.792 49.4417C156.742 50.0237 157.515 50.8125 158.113 51.8081C159.215 53.7074 159.767 56.3035 159.767 59.5966C159.767 62.5987 159.139 65.7462 157.883 69.0393C155.815 74.4155 152.997 78.0378 149.428 79.9065C148.203 80.5498 146.954 80.8714 145.683 80.8714C144.427 80.8714 143.378 80.5421 142.535 79.8835C141.693 79.2249 141.004 78.3518 140.468 77.2644C139.426 75.1507 138.905 72.4396 138.905 69.1312C138.905 66.3589 139.579 63.3415 140.927 60.0791C142.244 56.8626 143.914 54.1822 145.936 52.0378C148.111 49.725 150.316 48.5686 152.553 48.5686ZM141.823 73.037C141.823 77.3563 143.332 79.5159 146.349 79.5159C149.489 79.5159 152.093 76.6057 154.161 70.7854C155.83 66.0679 156.665 61.2738 156.665 56.4031C156.665 54.2128 156.504 52.7577 156.183 52.0378C155.861 51.318 155.432 50.7895 154.896 50.4526C154.36 50.1003 153.617 49.9241 152.667 49.9241C151.733 49.9241 150.86 50.1539 150.048 50.6134C149.237 51.0576 148.486 51.6779 147.797 52.4744C147.123 53.2555 146.503 54.1745 145.936 55.2314C145.384 56.2882 144.887 57.4216 144.442 58.6317C143.998 59.8417 143.608 61.0976 143.271 62.3995C142.949 63.6861 142.681 64.9651 142.467 66.2364C142.038 68.7483 141.823 71.0152 141.823 73.037ZM156.265 80.2511C156.204 80.2511 156.173 80.1439 156.173 79.9294C156.173 79.1636 157.828 77.4328 161.136 74.7371C162.545 73.5884 163.962 72.4396 165.386 71.2909C166.811 70.1268 168.182 68.9704 169.499 67.8216C170.831 66.6576 172.011 65.4859 173.037 64.3065C175.304 61.7333 176.437 59.3669 176.437 57.2072C176.437 55.6296 175.955 54.2741 174.99 53.1406C173.979 51.9613 172.731 51.3716 171.245 51.3716C170.066 51.3716 168.81 51.6856 167.477 52.3135C165.67 53.1866 164.222 54.5421 163.135 56.3801C162.874 56.8243 162.683 57.1995 162.56 57.5059C162.438 57.7969 162.331 57.9654 162.239 58.0113C162.009 58.1492 161.772 58.2181 161.527 58.2181C161.297 58.2181 161.182 58.1645 161.182 58.0573C161.259 57.6744 161.565 56.9928 162.101 56.0125C163.188 54.0213 164.138 52.6888 164.95 52.0149C165.762 51.3256 166.512 50.7666 167.201 50.3377C167.906 49.9088 168.595 49.5642 169.269 49.3038C170.51 48.8137 171.773 48.5686 173.06 48.5686C174.347 48.5686 175.449 48.7448 176.368 49.097C177.303 49.434 178.092 49.9088 178.735 50.5215C180.037 51.8081 180.688 53.5006 180.688 55.599C180.688 58.1415 179.669 60.5462 177.632 62.8131C176.162 64.4367 173.389 66.7035 169.315 69.6137C167.799 70.7165 166.122 72.049 164.284 73.6113C161.664 75.8322 160.34 77.0116 160.309 77.1495H173.244C174.362 77.1495 175.212 76.8355 175.794 76.2075C176.192 75.794 176.744 74.8213 177.448 73.2897H178.321L176.047 79.4929C175.909 79.8452 175.687 80.0979 175.381 80.2511H156.265ZM187.97 64.8349C187.755 64.8349 187.648 64.697 187.648 64.4213C187.648 64.161 188.131 63.7398 189.096 63.1577C191.255 61.672 192.749 60.5156 193.576 59.6885C195.337 57.9271 196.218 56.2499 196.218 54.657C196.218 53.6767 195.835 52.8343 195.069 52.1297C194.334 51.4405 193.446 51.0959 192.404 51.0959C191.363 51.0959 190.428 51.2797 189.601 51.6473C188.774 52.0149 188.039 52.4514 187.395 52.9568C186.553 53.6308 185.649 54.5957 184.684 55.8517C184.669 55.867 184.616 55.8747 184.524 55.8747C184.432 55.8747 184.286 55.8364 184.087 55.7598C183.903 55.6679 183.819 55.5836 183.834 55.5071C184.661 53.8682 186.048 52.3289 187.993 50.8891C190.091 49.3421 192.075 48.5686 193.943 48.5686C195.827 48.5686 197.29 48.9515 198.332 49.7174C199.373 50.4679 199.894 51.5094 199.894 52.842C199.894 55.0782 198.592 57.2302 195.988 59.2979C195.161 59.9565 194.227 60.5616 193.185 61.113C195.544 61.113 197.29 61.8175 198.423 63.2266C199.312 64.3448 199.756 65.616 199.756 67.0405C199.756 68.4496 199.534 69.7286 199.09 70.8773C198.646 72.0261 198.048 73.1059 197.298 74.1168C196.547 75.1124 195.682 76.0314 194.702 76.8738C193.737 77.7009 192.726 78.4131 191.669 79.0105C189.433 80.2511 187.373 80.8714 185.489 80.8714C183.605 80.8714 182.195 80.7259 181.261 80.4349C180.342 80.1439 179.676 79.8682 179.262 79.6078C178.343 79.0105 177.884 78.2216 177.884 77.2414C177.884 76.7512 178.091 76.376 178.504 76.1156C178.918 75.8399 179.324 75.7021 179.722 75.7021C180.12 75.7021 180.457 75.794 180.733 75.9778C181.024 76.1616 181.322 76.3913 181.629 76.667C181.935 76.9427 182.257 77.249 182.594 77.586C182.946 77.9077 183.329 78.2063 183.742 78.482C184.707 79.1253 185.665 79.447 186.614 79.447C187.579 79.447 188.452 79.2862 189.233 78.9645C190.015 78.6275 190.735 78.1757 191.393 77.609C192.067 77.0423 192.672 76.3913 193.208 75.6561C193.76 74.9056 194.227 74.1244 194.61 73.3127C195.421 71.6125 195.827 70.1498 195.827 68.9244C195.827 67.6838 195.705 66.7648 195.46 66.1674C195.215 65.5701 194.885 65.08 194.472 64.697C193.675 63.9618 192.657 63.5942 191.416 63.5942C190.757 63.5942 190.099 63.7551 189.44 64.0767C188.782 64.3831 188.376 64.5898 188.223 64.697C188.085 64.7889 188 64.8349 187.97 64.8349Z" fill="#141414"/>
<path d="M2.216 93.128L2.504 91.304H11.16L10.872 93.128H7.528L5.96 103H4.008L5.576 93.128H2.216ZM12.4748 103H10.6028L12.4908 91.096H14.3628L13.5628 96.168C14.2508 95.256 15.0028 94.856 16.0428 94.856C17.8188 94.856 18.9708 96.296 18.6667 98.152L17.8988 103H16.0268L16.7308 98.6C16.9388 97.304 16.3948 96.552 15.3068 96.552C14.1548 96.552 13.3548 97.368 13.1308 98.76L12.4748 103ZM23.5171 103.192C21.3091 103.192 19.9331 101.848 19.9331 99.656C19.9331 96.952 21.8531 94.888 24.3491 94.888C26.6851 94.888 28.0131 96.504 27.6451 98.888L27.5491 99.48L21.7411 99.496V99.544C21.7411 100.888 22.3971 101.64 23.6131 101.64C24.5091 101.64 25.2291 101.208 25.5651 100.456H27.4211C26.8771 102.104 25.3091 103.192 23.5171 103.192ZM24.2371 96.424C23.1971 96.424 22.3171 97.176 21.9491 98.28H25.8691C26.0451 97.16 25.3891 96.424 24.2371 96.424ZM34.0706 103H31.9266L37.9266 91.304H39.9586L42.2466 103H40.2466L39.7506 100.264H35.4466L34.0706 103ZM38.2466 94.664L36.2786 98.584H39.4466L38.7266 94.664C38.6786 94.424 38.6146 94.024 38.6146 93.8C38.5346 94.008 38.3906 94.36 38.2466 94.664ZM45.3029 103H43.4309L44.6789 95.096H46.4069V96.168C47.0949 95.256 47.8309 94.856 48.8869 94.856C50.6629 94.856 51.7989 96.296 51.5109 98.152L50.7429 103H48.8709L49.5589 98.6C49.7829 97.304 49.2389 96.552 48.1349 96.552C46.9989 96.552 46.1989 97.368 45.9749 98.76L45.3029 103ZM54.5529 103H52.6809L53.9289 95.096H55.6569V96.168C56.3449 95.256 57.0809 94.856 58.1369 94.856C59.9129 94.856 61.0489 96.296 60.7609 98.152L59.9929 103H58.1209L58.8089 98.6C59.0329 97.304 58.4889 96.552 57.3849 96.552C56.2489 96.552 55.4489 97.368 55.2249 98.76L54.5529 103ZM68.4109 95.096H70.2989L69.0509 103H67.3069L67.3229 101.928C66.6349 102.808 65.9309 103.208 64.8749 103.208C63.1309 103.208 62.0269 101.768 62.3309 99.912L63.0989 95.096H64.9709L64.2669 99.464C64.0589 100.744 64.6029 101.512 65.6269 101.512C66.7629 101.512 67.5309 100.728 67.7549 99.336L68.4109 95.096ZM73.4395 103.208C72.0155 103.208 71.0555 102.328 71.0555 101.048C71.0555 99.416 72.2395 98.424 74.3355 98.264L76.6875 98.056L76.7035 97.88C76.8635 96.888 76.3355 96.344 75.2475 96.344C74.1915 96.344 73.5835 96.792 73.4555 97.688H71.7755C72.0475 95.896 73.3755 94.872 75.4395 94.872C77.6475 94.872 78.8315 96.152 78.5115 98.184L77.7435 103H76.0955L76.1435 101.816C75.6955 102.664 74.6235 103.208 73.4395 103.208ZM74.1595 101.768C75.3755 101.768 76.2555 101 76.4315 99.784L76.4955 99.352L74.8315 99.496C73.5355 99.592 72.9595 100.056 72.9595 100.84C72.9595 101.416 73.4075 101.768 74.1595 101.768ZM81.5849 103H79.7129L81.5849 91.096H83.4729L81.5849 103ZM88.7004 94.776C88.7004 92.552 90.3484 91.096 92.7964 91.096C95.0044 91.096 96.6524 92.52 96.7484 94.52H94.7804C94.6684 93.48 93.9004 92.856 92.7164 92.856C91.4364 92.856 90.6524 93.48 90.6524 94.52C90.6524 95.304 91.0684 95.784 92.0124 96.088L93.7084 96.616C95.3724 97.144 96.1564 98.088 96.1564 99.576C96.1564 101.752 94.4764 103.208 91.9484 103.208C89.4844 103.208 87.9484 101.944 87.8204 99.784H89.8044C89.9004 100.824 90.7004 101.432 92.0124 101.432C93.3564 101.432 94.2204 100.776 94.2204 99.752C94.2204 99.016 93.8844 98.632 93.0044 98.36L91.2924 97.832C89.5964 97.304 88.7004 96.248 88.7004 94.776ZM96.5892 106.664L98.4133 95.096H100.157L100.093 96.28C100.733 95.384 101.613 94.888 102.781 94.888C104.653 94.888 105.997 96.344 105.997 98.456C105.997 101.224 104.221 103.192 101.837 103.192C100.653 103.192 99.6133 102.616 99.2133 101.736L98.4613 106.664H96.5892ZM99.6293 99.528C99.6293 100.76 100.349 101.528 101.533 101.528C102.973 101.528 104.109 100.232 104.109 98.568C104.109 97.352 103.389 96.536 102.237 96.536C100.781 96.536 99.6293 97.848 99.6293 99.528ZM106.98 99.608C106.98 96.968 109.044 94.888 111.62 94.888C113.876 94.888 115.396 96.328 115.396 98.472C115.396 101.112 113.348 103.192 110.756 103.192C108.5 103.192 106.98 101.752 106.98 99.608ZM108.9 99.464C108.9 100.712 109.652 101.528 110.868 101.528C112.308 101.528 113.476 100.232 113.476 98.616C113.476 97.352 112.724 96.536 111.524 96.536C110.084 96.536 108.9 97.832 108.9 99.464ZM122.339 95.048L122.051 96.808H121.347C119.987 96.808 118.995 97.576 118.755 99.096L118.131 103H116.259L117.507 95.096H119.251L119.187 96.312C119.619 95.48 120.451 94.952 121.475 94.952C121.763 94.952 122.067 94.984 122.339 95.048ZM125.304 103H123.432L124.424 96.664H122.92L123.176 95.096H124.68L125.064 92.648H126.936L126.552 95.096H128.056L127.8 96.664H126.296L125.304 103ZM127.862 100.632H129.67C129.702 101.336 130.23 101.752 131.062 101.752C131.91 101.752 132.486 101.368 132.486 100.776C132.486 100.328 132.278 100.104 131.702 99.912L130.358 99.464C129.254 99.112 128.614 98.44 128.614 97.4C128.614 95.864 129.83 94.888 131.766 94.888C133.494 94.888 134.63 95.896 134.63 97.416H132.822C132.806 96.696 132.374 96.296 131.622 96.296C130.854 96.296 130.406 96.632 130.406 97.208C130.406 97.656 130.694 97.96 131.302 98.168L132.63 98.6C133.766 98.984 134.294 99.608 134.294 100.568C134.294 102.184 133.014 103.176 130.934 103.176C129.094 103.176 127.862 102.168 127.862 100.632ZM146.93 98.2H142.626L141.874 103H139.906L141.762 91.304H148.818L148.546 93.128H143.426L142.914 96.408H147.202L146.93 98.2ZM151.611 103.192C149.403 103.192 148.027 101.848 148.027 99.656C148.027 96.952 149.947 94.888 152.443 94.888C154.779 94.888 156.107 96.504 155.739 98.888L155.643 99.48L149.835 99.496V99.544C149.835 100.888 150.491 101.64 151.707 101.64C152.603 101.64 153.323 101.208 153.659 100.456H155.515C154.971 102.104 153.403 103.192 151.611 103.192ZM152.331 96.424C151.291 96.424 150.411 97.176 150.043 98.28H153.963C154.139 97.16 153.483 96.424 152.331 96.424ZM156.362 100.632H158.17C158.202 101.336 158.73 101.752 159.562 101.752C160.41 101.752 160.986 101.368 160.986 100.776C160.986 100.328 160.778 100.104 160.202 99.912L158.858 99.464C157.754 99.112 157.114 98.44 157.114 97.4C157.114 95.864 158.33 94.888 160.266 94.888C161.994 94.888 163.13 95.896 163.13 97.416H161.322C161.306 96.696 160.874 96.296 160.122 96.296C159.354 96.296 158.906 96.632 158.906 97.208C158.906 97.656 159.194 97.96 159.802 98.168L161.13 98.6C162.266 98.984 162.794 99.608 162.794 100.568C162.794 102.184 161.514 103.176 159.434 103.176C157.594 103.176 156.362 102.168 156.362 100.632ZM166.226 103H164.354L165.346 96.664H163.842L164.098 95.096H165.602L165.986 92.648H167.858L167.474 95.096H168.978L168.722 96.664H167.218L166.226 103ZM173.277 99.608C173.277 96.968 175.341 94.888 177.917 94.888C180.173 94.888 181.693 96.328 181.693 98.472C181.693 101.112 179.645 103.192 177.053 103.192C174.797 103.192 173.277 101.752 173.277 99.608ZM175.197 99.464C175.197 100.712 175.949 101.528 177.165 101.528C178.605 101.528 179.773 100.232 179.773 98.616C179.773 97.352 179.021 96.536 177.821 96.536C176.381 96.536 175.197 97.832 175.197 99.464ZM182.989 95.096H184.109L184.269 94.104C184.589 92.12 185.693 91.096 187.501 91.096C187.821 91.096 188.173 91.112 188.461 91.176L188.205 92.792C187.981 92.792 187.773 92.776 187.549 92.776C186.701 92.776 186.269 93.176 186.125 94.104L185.965 95.096H187.821L187.565 96.664H185.725L184.717 103H182.861L183.869 96.664H182.733L182.989 95.096ZM196.152 91.304L194.312 103H192.344L194.2 91.304H196.152ZM200.714 91.304L198.874 103H196.906L198.762 91.304H200.714ZM202.013 93.128L202.301 91.304H210.957L210.669 93.128H207.325L205.757 103H203.805L205.373 93.128H202.013ZM221.258 93C218.89 93 217.226 95.048 217.226 97.928C217.226 100.024 218.442 101.32 220.394 101.32C222.378 101.32 223.674 100.2 223.978 98.28L223.994 98.2H220.49L220.778 96.44H226.09L225.05 103H223.402L223.498 101.688C222.842 102.6 221.514 103.192 220.122 103.192C217.098 103.192 215.146 101.16 215.146 98.04C215.146 94.024 217.818 91.112 221.482 91.112C224.138 91.112 225.946 92.632 226.122 95.048H224.01C223.786 93.736 222.826 93 221.258 93ZM233.458 95.096H235.346L234.098 103H232.354L232.37 101.928C231.682 102.808 230.978 103.208 229.922 103.208C228.178 103.208 227.074 101.768 227.378 99.912L228.146 95.096H230.018L229.314 99.464C229.106 100.744 229.65 101.512 230.674 101.512C231.81 101.512 232.578 100.728 232.802 99.336L233.458 95.096ZM237.814 103L236.534 95.096H238.422L238.902 98.584C238.982 99.16 239.046 99.896 239.094 100.6C239.318 99.992 239.59 99.32 239.926 98.584L241.542 95.096H243.462L243.942 98.584C243.99 98.936 244.086 100.024 244.134 100.6C244.406 99.912 244.758 99.032 244.966 98.584L246.582 95.096H248.63L244.71 103H242.982L242.422 99.48C242.326 98.744 242.198 97.608 242.182 97.208C242.006 97.656 241.574 98.712 241.238 99.512L239.67 103H237.814ZM250.533 103.208C249.109 103.208 248.149 102.328 248.149 101.048C248.149 99.416 249.333 98.424 251.429 98.264L253.781 98.056L253.797 97.88C253.957 96.888 253.429 96.344 252.341 96.344C251.285 96.344 250.677 96.792 250.549 97.688H248.869C249.141 95.896 250.469 94.872 252.533 94.872C254.741 94.872 255.925 96.152 255.605 98.184L254.837 103H253.189L253.237 101.816C252.789 102.664 251.717 103.208 250.533 103.208ZM251.253 101.768C252.469 101.768 253.349 101 253.525 99.784L253.589 99.352L251.925 99.496C250.629 99.592 250.053 100.056 250.053 100.84C250.053 101.416 250.501 101.768 251.253 101.768ZM258.647 103H256.775L258.663 91.096H260.535L259.735 96.168C260.423 95.256 261.175 94.856 262.215 94.856C263.991 94.856 265.143 96.296 264.839 98.152L264.071 103H262.199L262.903 98.6C263.111 97.304 262.567 96.552 261.479 96.552C260.327 96.552 259.527 97.368 259.303 98.76L258.647 103ZM268.377 103.208C266.953 103.208 265.993 102.328 265.993 101.048C265.993 99.416 267.177 98.424 269.273 98.264L271.625 98.056L271.641 97.88C271.801 96.888 271.273 96.344 270.185 96.344C269.129 96.344 268.521 96.792 268.393 97.688H266.713C266.985 95.896 268.313 94.872 270.377 94.872C272.585 94.872 273.769 96.152 273.449 98.184L272.681 103H271.033L271.081 101.816C270.633 102.664 269.561 103.208 268.377 103.208ZM269.097 101.768C270.313 101.768 271.193 101 271.369 99.784L271.433 99.352L269.769 99.496C268.473 99.592 267.897 100.056 267.897 100.84C267.897 101.416 268.345 101.768 269.097 101.768ZM277.101 103H275.229L276.221 96.664H274.717L274.973 95.096H276.477L276.861 92.648H278.733L278.349 95.096H279.853L279.597 96.664H278.093L277.101 103ZM282.254 93.496C281.678 93.496 281.278 93.064 281.278 92.52C281.278 91.816 281.902 91.176 282.622 91.176C283.182 91.176 283.598 91.592 283.598 92.152C283.598 92.84 282.958 93.496 282.254 93.496ZM279.822 103L281.07 95.096H282.942L281.694 103H279.822Z" fill="black"/>
</svg>
