<svg width="59" height="30" viewBox="0 0 59 30" fill="none" xmlns="http://www.w3.org/2000/svg">
<mask id="mask0_302_391" style="mask-type:alpha" maskUnits="userSpaceOnUse" x="-1" y="0" width="60" height="30">
<path d="M-0.0390625 15.1335L7.85998 0.547485L51.0141 0.555644L58.8752 14.8315L50.9779 29.4357L7.74311 29.3865L-0.0390625 15.1335Z" fill="#D9D9D9"/>
</mask>
<g mask="url(#mask0_302_391)">
<path d="M7.21333 1.79312C6.8485 2.46349 6.15147 3.74713 5.66437 4.6456L4.77871 6.27918L5.57445 6.31613C6.0121 6.33648 10.9306 6.34779 16.5045 6.34126L26.6389 6.32945L26.8623 5.92733C26.9852 5.70617 27.6793 4.42821 28.4047 3.08742L29.7237 0.649615L29.4154 0.617798C29.2459 0.600306 24.3303 0.583317 18.4919 0.5801L7.87668 0.574219L7.21333 1.79312ZM33.9805 0.938633C32.5828 3.53401 21.6929 23.5872 21.6564 23.6328C21.6166 23.6826 19.8528 23.6957 13.137 23.6957C7.58782 23.6957 4.67342 23.7127 4.68417 23.7453C4.69316 23.7726 5.38558 25.0615 6.22287 26.6097L7.74521 29.4245L16.251 29.4251L24.7568 29.4258L24.9499 29.0865C25.119 28.7893 30.8867 18.1623 35.626 9.41601L37.2491 6.42057L38.502 6.3876C39.1911 6.36941 43.0109 6.35458 46.9904 6.35458C50.9699 6.35458 54.2258 6.34216 54.2258 6.32693C54.2258 6.27617 54.0749 5.99217 52.6181 3.30104L51.1691 0.624483H42.6594H34.1497L33.9805 0.938633ZM0.834707 13.5549C0.414343 14.3359 0.0447577 15.0265 0.0133777 15.0897C-0.0376944 15.1925 0.0320387 15.3443 0.677021 16.5349L1.39768 17.8653L10.8993 17.8526L20.4009 17.8399L21.9169 15.0502C22.7508 13.5159 23.4335 12.2323 23.4341 12.1978C23.4349 12.1477 21.2194 12.1349 12.5171 12.1349H1.59897L0.834707 13.5549ZM36.9277 14.912C36.0993 16.4394 35.4085 17.7251 35.3926 17.769C35.3673 17.8396 35.472 17.8529 36.2869 17.882C37.4745 17.9245 56.2786 17.9159 56.8214 17.8726L57.2316 17.8399L58.0368 16.3588C58.4796 15.5442 58.8419 14.8563 58.8419 14.83C58.8419 14.8038 58.5201 14.1866 58.1267 13.4586L57.4115 12.1349H47.9228H38.4339L36.9277 14.912ZM32.1399 23.7585C32.102 23.8075 29.7309 28.1704 29.2051 29.1584L29.0932 29.3687L29.3948 29.3995C29.5607 29.4165 34.4808 29.4236 40.3283 29.4155L50.9601 29.4006L52.4912 26.5858C53.3333 25.0377 54.0258 23.7334 54.0258 23.7334C54.0258 23.7334 49.1152 23.6957 43.1089 23.6957C34.4311 23.6957 32.1784 23.7086 32.1399 23.7585Z" fill="#CFFF69"/>
<path d="M7.21333 1.79312C6.8485 2.46349 6.15147 3.74713 5.66437 4.6456L4.77871 6.27918L5.57445 6.31613C6.0121 6.33648 10.9306 6.34779 16.5045 6.34126L26.6389 6.32945L26.8623 5.92733C26.9852 5.70617 27.6793 4.42821 28.4047 3.08742L29.7237 0.649615L29.4154 0.617798C29.2459 0.600306 24.3303 0.583317 18.4919 0.5801L7.87668 0.574219L7.21333 1.79312ZM33.9805 0.938633C32.5828 3.53401 21.6929 23.5872 21.6564 23.6328C21.6166 23.6826 19.8528 23.6957 13.137 23.6957C7.58782 23.6957 4.67342 23.7127 4.68417 23.7453C4.69316 23.7726 5.38558 25.0615 6.22287 26.6097L7.74521 29.4245L16.251 29.4251L24.7568 29.4258L24.9499 29.0865C25.119 28.7893 30.8867 18.1623 35.626 9.41601L37.2491 6.42057L38.502 6.3876C39.1911 6.36941 43.0109 6.35458 46.9904 6.35458C50.9699 6.35458 54.2258 6.34216 54.2258 6.32693C54.2258 6.27617 54.0749 5.99217 52.6181 3.30104L51.1691 0.624483H42.6594H34.1497L33.9805 0.938633ZM0.834707 13.5549C0.414343 14.3359 0.0447577 15.0265 0.0133777 15.0897C-0.0376944 15.1925 0.0320387 15.3443 0.677021 16.5349L1.39768 17.8653L10.8993 17.8526L20.4009 17.8399L21.9169 15.0502C22.7508 13.5159 23.4335 12.2323 23.4341 12.1978C23.4349 12.1477 21.2194 12.1349 12.5171 12.1349H1.59897L0.834707 13.5549ZM36.9277 14.912C36.0993 16.4394 35.4085 17.7251 35.3926 17.769C35.3673 17.8396 35.472 17.8529 36.2869 17.882C37.4745 17.9245 56.2786 17.9159 56.8214 17.8726L57.2316 17.8399L58.0368 16.3588C58.4796 15.5442 58.8419 14.8563 58.8419 14.83C58.8419 14.8038 58.5201 14.1866 58.1267 13.4586L57.4115 12.1349H47.9228H38.4339L36.9277 14.912ZM32.1399 23.7585C32.102 23.8075 29.7309 28.1704 29.2051 29.1584L29.0932 29.3687L29.3948 29.3995C29.5607 29.4165 34.4808 29.4236 40.3283 29.4155L50.9601 29.4006L52.4912 26.5858C53.3333 25.0377 54.0258 23.7334 54.0258 23.7334C54.0258 23.7334 49.1152 23.6957 43.1089 23.6957C34.4311 23.6957 32.1784 23.7086 32.1399 23.7585Z" stroke="#CFFF69"/>
<path fill-rule="evenodd" clip-rule="evenodd" d="M33.6814 0.897803C33.6814 0.897803 21.6467 23.0521 21.6069 23.1018C21.5634 23.1562 19.8166 23.1704 12.4853 23.1704C6.4276 23.1704 3.2461 23.1891 3.25784 23.2246C3.26766 23.2544 4.02353 24.6615 4.93756 26.3516L6.59942 29.4244L15.8847 29.425L25.17 29.4257L25.3808 29.0553C25.5655 28.7309 30.1054 20.3628 35.279 10.8149L37.4282 6.88214L38.796 6.84615C39.5482 6.82628 43.718 6.8101 48.0622 6.8101C52.4064 6.8101 55.9608 6.79654 55.9608 6.77992C55.9608 6.7245 55.796 6.41448 54.2057 3.47672L52.624 0.554862H43.3344H33.8662L33.6814 0.897803Z" fill="#CFFF69"/>
</g>
</svg>
