<svg width="99" height="48" viewBox="0 0 99 48" fill="none" xmlns="http://www.w3.org/2000/svg">
<path fill-rule="evenodd" clip-rule="evenodd" d="M12.0274 2.16531C11.4191 3.25737 10.2568 5.34846 9.44466 6.81209L7.96793 9.47324L9.29473 9.53342C10.0245 9.56659 18.2256 9.58501 27.5194 9.57437L44.4172 9.55512L44.7896 8.90007C44.9946 8.53979 46.1519 6.45795 47.3615 4.27376L49.5608 0.30251L49.0467 0.250679C48.764 0.222184 40.5678 0.194508 30.8331 0.189268L13.1334 0.179688L12.0274 2.16531ZM56.6584 0.773329C54.3279 5.00128 36.1703 37.6686 36.1095 37.7428C36.0431 37.824 33.1021 37.8452 21.9043 37.8452C12.6518 37.8452 7.79237 37.873 7.8103 37.926C7.82529 37.9705 8.97982 40.0702 10.3759 42.5923L12.9142 47.1777L27.0966 47.1787L41.279 47.1797L41.6009 46.627C41.883 46.1428 51.5 28.8313 59.4021 14.5832L62.1084 9.70357L64.1975 9.64986C65.3465 9.62022 71.7155 9.59606 78.3508 9.59606C84.9862 9.59606 90.4151 9.57584 90.4151 9.55103C90.4151 9.46833 90.1635 9.0057 87.7344 4.62176L85.3185 0.261569H71.1295H56.9406L56.6584 0.773329ZM1.39177 21.3256C0.690868 22.5979 0.0746281 23.7229 0.0223058 23.8258C-0.062851 23.9933 0.0534209 24.2406 1.12885 26.1801L2.33046 28.3473L18.1732 28.3267L34.0161 28.306L36.5438 23.7616C37.9342 21.2621 39.0725 19.1711 39.0736 19.1148C39.075 19.0332 35.3809 19.0124 20.8707 19.0124H2.6661L1.39177 21.3256ZM61.5725 23.5364C60.1912 26.0245 59.0394 28.119 59.013 28.1905C58.9707 28.3055 59.1454 28.3271 60.5041 28.3745C62.4843 28.4438 93.8379 28.4298 94.7429 28.3593L95.427 28.306L96.7695 25.8933C97.5078 24.5663 98.112 23.4456 98.112 23.4028C98.112 23.36 97.5753 22.3547 96.9194 21.1687L95.7269 19.0124H79.9055H64.084L61.5725 23.5364ZM53.5895 37.9475C53.5263 38.0275 49.5728 45.1346 48.696 46.7442L48.5095 47.0867L49.0124 47.1369C49.289 47.1645 57.4926 47.1762 67.2426 47.163L84.97 47.1387L87.5228 42.5534C88.9269 40.0314 90.0783 37.9404 90.0816 37.9066C90.0849 37.8728 81.8937 37.8452 71.8789 37.8452C57.4098 37.8452 53.6537 37.8662 53.5895 37.9475Z" fill="white"/>
</svg>
